<svg width="33" height="33" viewBox="0 0 33 33" fill="none" xmlns="http://www.w3.org/2000/svg">
<rect width="33" height="33" rx="16.5" fill="#1F2130"/>
<path d="M22.9374 20.2691L21.9694 18.8764C21.8372 18.687 21.7661 18.4618 21.7655 18.231V14.234C21.7655 12.7325 21.1691 11.2925 20.1074 10.2308C19.0456 9.16912 17.6057 8.57266 16.1042 8.57266C14.6027 8.57266 13.1627 9.16912 12.101 10.2308C11.0393 11.2925 10.4428 12.7325 10.4428 14.234V18.231C10.4422 18.4618 10.3711 18.687 10.239 18.8764L9.27089 20.2691C9.12431 20.4315 9.02791 20.6329 8.99337 20.8489C8.95883 21.0649 8.98761 21.2864 9.07625 21.4864C9.16488 21.6864 9.30957 21.8565 9.49281 21.976C9.67604 22.0956 9.88999 22.1594 10.1088 22.16H13.3301C13.46 22.7999 13.8072 23.3752 14.3128 23.7884C14.8183 24.2016 15.4512 24.4273 16.1042 24.4273C16.7571 24.4273 17.39 24.2016 17.8956 23.7884C18.4011 23.3752 18.7483 22.7999 18.8782 22.16H22.0996C22.3183 22.1594 22.5323 22.0956 22.7155 21.976C22.8988 21.8565 23.0435 21.6864 23.1321 21.4864C23.2207 21.2864 23.2495 21.0649 23.215 20.8489C23.1804 20.6329 23.084 20.4315 22.9374 20.2691ZM16.1042 23.2922C15.7538 23.2912 15.4122 23.1819 15.1264 22.9792C14.8406 22.7765 14.6245 22.4903 14.5077 22.16H17.7007C17.5839 22.4903 17.3677 22.7765 17.0819 22.9792C16.7961 23.1819 16.4546 23.2912 16.1042 23.2922ZM10.1088 21.0277C10.1344 21.0039 10.1572 20.9773 10.1767 20.9484L11.1674 19.5218C11.4317 19.1431 11.574 18.6927 11.5751 18.231V14.234C11.5751 13.0328 12.0522 11.8808 12.9016 11.0315C13.751 10.1821 14.903 9.70493 16.1042 9.70493C17.3054 9.70493 18.4574 10.1821 19.3067 11.0315C20.1561 11.8808 20.6333 13.0328 20.6333 14.234V18.231C20.6344 18.6927 20.7766 19.1431 21.0409 19.5218L22.0316 20.9484C22.0512 20.9773 22.074 21.0039 22.0996 21.0277H10.1088Z" fill="#848484"/>
</svg>
