<svg width="29" height="25" viewBox="0 0 29 25" fill="none" xmlns="http://www.w3.org/2000/svg">
<path d="M14.3226 24.2838C14.1288 24.2838 13.9511 24.1976 13.8272 24.0522L0.145418 7.44128C-0.0484217 7.20436 -0.0484217 6.86515 0.145418 6.62823L5.36293 0.236915C5.48677 0.0861511 5.66446 0 5.8583 0H22.7923C22.9862 0 23.1692 0.0861511 23.2877 0.236915L28.5052 6.62823C28.699 6.86515 28.699 7.20436 28.5052 7.44128L14.818 24.0469C14.6941 24.1976 14.5165 24.2838 14.3226 24.2838ZM1.46999 7.03206L14.3226 22.6307L27.1752 7.03206L22.4854 1.28688H6.15982L1.46999 7.03206Z" fill="#848484"/>
<path d="M14.3226 24.2837C14.0534 24.2837 13.8057 24.1114 13.7195 23.8583L7.8505 7.25275C7.73205 6.91892 7.90973 6.55278 8.24357 6.43432C8.5774 6.31586 8.94354 6.49355 9.062 6.82738L14.3226 21.7153L19.5832 6.822C19.7016 6.48816 20.0678 6.31586 20.4016 6.42894C20.7354 6.54739 20.9131 6.91353 20.7947 7.24737L14.9256 23.8529C14.8395 24.1114 14.5918 24.2837 14.3226 24.2837Z" fill="#848484"/>
<path d="M28.0044 7.67802H0.640785C0.285413 7.67802 3.8147e-05 7.39264 3.8147e-05 7.03727C3.8147e-05 6.6819 0.285413 6.39652 0.640785 6.39652H28.0044C28.3598 6.39652 28.6452 6.6819 28.6452 7.03727C28.6452 7.38726 28.3598 7.67802 28.0044 7.67802Z" fill="#848484"/>
<path d="M8.45363 7.67811C8.41594 7.67811 8.37825 7.67272 8.34056 7.66734C8.12518 7.62965 7.94211 7.47888 7.86134 7.27966L5.26067 0.888343C5.12605 0.559893 5.28759 0.188367 5.61065 0.0537562C5.9391 -0.0808545 6.31063 0.0806782 6.44524 0.403744L8.66362 5.85817L13.8488 0.215289C14.0911 -0.0485478 14.5488 -0.0485478 14.7911 0.215289L19.9709 5.85817L22.1893 0.403744C22.3239 0.0752937 22.6954 -0.0808545 23.0239 0.0537562C23.3523 0.188367 23.5085 0.559893 23.3739 0.888343L20.784 7.27427C20.7032 7.47888 20.5201 7.62426 20.3048 7.66195C20.0894 7.69964 19.8686 7.62426 19.7179 7.46273L14.3227 1.5937L8.92746 7.46811C8.80362 7.60272 8.63132 7.67811 8.45363 7.67811Z" fill="#848484"/>
</svg>
