<svg width="33" height="33" viewBox="0 0 33 33" fill="none" xmlns="http://www.w3.org/2000/svg">
<rect width="33" height="33" rx="16.5" fill="#1F2130"/>
<path d="M22.9374 20.2692L21.9694 18.8765C21.8372 18.6871 21.7661 18.4619 21.7655 18.2311V14.2341C21.7655 12.7326 21.1691 11.2926 20.1074 10.2309C19.0456 9.16922 17.6057 8.57275 16.1042 8.57275C14.6027 8.57275 13.1627 9.16922 12.101 10.2309C11.0393 11.2926 10.4428 12.7326 10.4428 14.2341V18.2311C10.4422 18.4619 10.3711 18.6871 10.239 18.8765L9.27089 20.2692C9.12431 20.4316 9.02791 20.633 8.99337 20.849C8.95883 21.065 8.98761 21.2865 9.07625 21.4865C9.16488 21.6865 9.30957 21.8566 9.49281 21.9761C9.67604 22.0956 9.88999 22.1595 10.1088 22.1601H13.3301C13.46 22.7999 13.8072 23.3753 14.3128 23.7885C14.8183 24.2017 15.4512 24.4274 16.1042 24.4274C16.7571 24.4274 17.39 24.2017 17.8956 23.7885C18.4011 23.3753 18.7483 22.7999 18.8782 22.1601H22.0996C22.3183 22.1595 22.5323 22.0956 22.7155 21.9761C22.8988 21.8566 23.0435 21.6865 23.1321 21.4865C23.2207 21.2865 23.2495 21.065 23.215 20.849C23.1804 20.633 23.084 20.4316 22.9374 20.2692ZM16.1042 23.2923C15.7538 23.2913 15.4122 23.182 15.1264 22.9793C14.8406 22.7766 14.6245 22.4904 14.5077 22.1601H17.7007C17.5839 22.4904 17.3677 22.7766 17.0819 22.9793C16.7961 23.182 16.4546 23.2913 16.1042 23.2923ZM10.1088 21.0278C10.1344 21.004 10.1572 20.9774 10.1767 20.9485L11.1674 19.5219C11.4317 19.1432 11.574 18.6928 11.5751 18.2311V14.2341C11.5751 13.0329 12.0522 11.8809 12.9016 11.0316C13.751 10.1822 14.903 9.70503 16.1042 9.70503C17.3054 9.70503 18.4574 10.1822 19.3067 11.0316C20.1561 11.8809 20.6333 13.0329 20.6333 14.2341V18.2311C20.6344 18.6928 20.7766 19.1432 21.0409 19.5219L22.0316 20.9485C22.0512 20.9774 22.074 21.004 22.0996 21.0278H10.1088Z" fill="#848484"/>
<circle cx="21.5" cy="9.5" r="4.5" fill="#DA0E0E"/>
</svg>
