<svg width="25" height="24" viewBox="0 0 25 24" fill="none" xmlns="http://www.w3.org/2000/svg">
<path d="M8.05473 14.5158H8.05587L8.05873 14.5156H21.3379C21.6648 14.5156 21.9522 14.3074 22.0421 14.0057L24.9718 4.16192C25.0349 3.9497 24.9906 3.72156 24.8524 3.54541C24.7139 3.36926 24.4974 3.26562 24.2676 3.26562H6.36558L5.84201 1.00372C5.76744 0.682007 5.47027 0.453125 5.12695 0.453125H0.732421C0.327873 0.453125 0 0.767883 0 1.15625C0 1.54462 0.327873 1.85937 0.732421 1.85937H4.53949C4.63218 2.26019 7.04498 12.6836 7.18383 13.2833C6.40545 13.6081 5.85937 14.3532 5.85937 15.2187C5.85937 16.3818 6.84509 17.3281 8.05664 17.3281H21.3379C21.7424 17.3281 22.0703 17.0134 22.0703 16.625C22.0703 16.2366 21.7424 15.9219 21.3379 15.9219H8.05664C7.65285 15.9219 7.32421 15.6064 7.32421 15.2187C7.32421 14.8317 7.65171 14.5167 8.05473 14.5158ZM23.2965 4.67187L20.7853 13.1094H8.6441L6.69098 4.67187H23.2965Z" fill="#848484"/>
<path d="M7.32422 20.4375C7.32422 21.6006 8.30994 22.5469 9.52148 22.5469C10.733 22.5469 11.7187 21.6006 11.7187 20.4375C11.7187 19.2744 10.733 18.3281 9.52148 18.3281C8.30994 18.3281 7.32422 19.2744 7.32422 20.4375ZM9.52148 19.7344C9.92527 19.7344 10.2539 20.0499 10.2539 20.4375C10.2539 20.8251 9.92527 21.1406 9.52148 21.1406C9.1177 21.1406 8.78906 20.8251 8.78906 20.4375C8.78906 20.0499 9.1177 19.7344 9.52148 19.7344Z" fill="#848484"/>
<path d="M17.6758 20.4375C17.6758 21.6006 18.6615 22.5469 19.873 22.5469C21.0846 22.5469 22.0703 21.6006 22.0703 20.4375C22.0703 19.2744 21.0846 18.3281 19.873 18.3281C18.6615 18.3281 17.6758 19.2744 17.6758 20.4375ZM19.873 19.7344C20.2768 19.7344 20.6055 20.0499 20.6055 20.4375C20.6055 20.8251 20.2768 21.1406 19.873 21.1406C19.4693 21.1406 19.1406 20.8251 19.1406 20.4375C19.1406 20.0499 19.4693 19.7344 19.873 19.7344Z" fill="#848484"/>
<path d="M10.4167 6.49999H12.4999V8.49932H10.4167V6.49999Z" fill="#848484"/>
<path d="M13.5417 6.49999H15.625V8.49932H13.5417V6.49999Z" fill="#848484"/>
<path d="M14.5832 9.99998H15.6249V11.0002H14.5832V9.99998Z" fill="#848484"/>
<path d="M13.5417 9.00015H14.5833V10.0001H13.5417V9.00015Z" fill="#848484"/>
<path d="M10.4167 9.49945H12.4999V11.4988H10.4167V9.49945Z" fill="#848484"/>
</svg>
